<?xml version="1.0" standalone="no"?>
<!DOCTYPE svg PUBLIC "-//W3C//DTD SVG 20010904//EN"
 "http://www.w3.org/TR/2001/REC-SVG-20010904/DTD/svg10.dtd">
<svg version="1.0" xmlns="http://www.w3.org/2000/svg"
 width="320.000000pt" height="320.000000pt" viewBox="0 0 320.000000 320.000000"
 preserveAspectRatio="xMidYMid meet">

<g transform="translate(0.000000,320.000000) scale(0.100000,-0.100000)"
fill="white" stroke="none">
<path fill="" d="M0 1600 l0 -1600 1600 0 1600 0 0 1600 0 1600 -1600 0 -1600 0 0
-1600z m1511 914 c-44 -55 -45 -137 -3 -193 29 -39 98 -71 156 -72 l51 -1 -35
-13 c-57 -22 -121 -18 -174 10 -53 28 -72 27 -151 -13 -73 -35 -112 -68 -135
-110 l-19 -37 -1 35 c0 68 64 135 174 179 l54 23 -9 34 c-18 62 15 135 76 173
38 23 43 19 16 -15z m404 -238 c78 -43 125 -103 125 -159 l0 -42 -21 43 c-31
63 -107 113 -211 142 l-47 12 22 19 c32 27 64 23 132 -15z m-265 -100 c0 -3
-7 -36 -15 -74 -8 -38 -15 -99 -17 -136 -3 -96 -23 -86 -32 16 -7 79 -18 146
-32 181 -5 15 1 17 45 17 28 0 51 -2 51 -4z m-942 -444 c5 -16 -80 -53 -90
-39 -7 11 -48 -18 -48 -34 0 -4 25 -23 55 -44 30 -20 55 -43 55 -51 0 -21 10
-18 101 26 46 22 89 40 97 40 28 0 4 -23 -43 -41 -53 -20 -91 -49 -65 -49 8 0
35 9 59 20 45 21 61 19 61 -6 0 -23 28 -16 90 21 75 46 123 47 99 3 -15 -29
-8 -30 38 -7 33 16 46 18 62 9 12 -6 21 -15 21 -19 0 -5 10 -11 23 -15 18 -5
20 -8 7 -16 -22 -14 -56 -12 -70 5 -18 21 -37 18 -100 -15 -59 -32 -82 -27
-56 12 24 37 10 39 -49 7 -61 -33 -77 -35 -100 -13 -14 15 -20 14 -65 -5 -57
-25 -90 -27 -90 -6 0 20 -30 19 -90 -5 -53 -21 -110 -27 -110 -11 0 11 64 34
100 35 41 2 29 28 -33 69 -37 24 -57 44 -55 54 4 23 48 53 109 74 59 20 80 21
87 1z m812 -12 c0 -40 25 -87 50 -95 22 -7 41 2 122 57 65 44 78 46 78 17 0
-26 -67 -171 -83 -181 -24 -15 -25 -7 -6 55 26 87 25 91 -19 62 -63 -41 -100
-48 -137 -25 l-32 20 -11 -39 c-7 -21 -12 -45 -12 -53 0 -19 -26 -42 -38 -34
-9 5 -2 74 18 169 9 44 17 60 33 67 34 14 37 12 37 -20z m1200 4 c0 -26 -20
-57 -74 -112 -49 -51 -50 -54 -32 -67 13 -10 32 -13 60 -9 32 5 39 4 29 -6
-20 -21 -101 -25 -122 -6 -18 16 -23 16 -65 2 -59 -20 -80 -20 -101 0 -13 14
-20 14 -45 4 -23 -10 -36 -10 -59 -1 -24 11 -34 9 -67 -8 -50 -27 -62 -26 -76
4 -14 30 -15 30 -53 0 -23 -19 -27 -27 -17 -37 33 -33 -9 -81 -79 -93 -32 -6
-45 -3 -58 10 -15 15 -13 19 22 51 21 20 37 36 35 37 -2 1 -15 12 -29 25 -24
21 -28 22 -55 7 -40 -21 -77 -19 -99 5 -13 14 -25 18 -43 13 -36 -9 -20 13 29
38 l40 20 15 -36 c12 -30 18 -35 37 -30 12 4 33 15 47 26 76 59 131 91 145 85
21 -8 12 -21 -36 -52 -42 -26 -47 -48 -17 -68 14 -8 31 -1 93 42 66 46 95 61
95 48 0 -2 -7 -17 -15 -32 -32 -61 -10 -71 50 -24 45 35 51 36 65 10 16 -29
31 -25 70 20 42 48 100 66 100 32 0 -12 -13 -31 -30 -44 -39 -28 -38 -38 4
-38 37 0 86 32 86 58 1 44 88 142 126 142 15 0 24 -6 24 -16z m-815 -43 c8
-13 -23 -41 -46 -41 -26 0 -24 25 4 38 28 14 35 14 42 3z m-387 -393 c17 -17
15 -33 -2 -18 -19 15 -56 9 -69 -11 -24 -38 16 -89 57 -73 17 7 22 34 6 34 -5
0 -10 4 -10 9 0 5 8 8 18 7 11 -2 18 -13 20 -33 3 -29 2 -30 -42 -31 -36 -2
-48 2 -60 20 -9 12 -16 33 -16 45 0 47 67 82 98 51z m232 3 c0 -5 -6 -12 -12
-14 -10 -4 -10 -8 1 -15 9 -7 10 -12 2 -16 -6 -4 -11 -23 -11 -42 0 -46 -20
-44 -22 4 -2 56 1 75 15 84 16 10 27 10 27 -1z m-830 -26 c0 -22 4 -25 35 -25
31 0 35 3 35 25 0 14 5 25 10 25 6 0 10 -27 10 -60 0 -33 -4 -60 -10 -60 -5 0
-10 11 -10 25 0 22 -4 25 -35 25 -31 0 -35 -3 -35 -25 0 -14 -4 -25 -10 -25
-6 0 -10 27 -10 60 0 33 4 60 10 60 6 0 10 -11 10 -25z m396 -31 c-6 -77 -16
-80 -16 -6 0 37 4 62 11 62 6 0 9 -20 5 -56z m364 -4 c0 -33 -4 -60 -10 -60
-6 0 -10 27 -10 60 0 33 4 60 10 60 6 0 10 -27 10 -60z m183 50 c-13 -5 -23
-14 -23 -19 0 -15 49 -68 50 -53 0 23 15 12 15 -12 0 -25 -2 -25 -64 -26 -39
0 -52 28 -25 54 8 9 12 21 9 26 -12 20 4 40 32 39 27 0 27 -1 6 -9z m178 0
c-35 -8 -51 -24 -51 -50 0 -26 16 -42 51 -49 29 -6 31 -8 12 -13 -54 -15 -100
49 -69 96 13 21 24 26 54 25 l37 -1 -34 -8z m69 -50 c0 -33 -4 -60 -10 -60 -6
0 -10 27 -10 60 0 33 4 60 10 60 6 0 10 -27 10 -60z m150 46 c0 -9 12 -16 33
-18 30 -3 32 -5 32 -43 0 -40 0 -40 -42 -43 l-43 -3 0 60 c0 34 4 61 10 61 6
0 10 -6 10 -14z m-1080 -19 c12 -4 11 -6 -2 -6 -24 -1 -26 -71 -2 -71 8 0 12
-5 9 -10 -14 -22 -43 9 -47 50 -3 38 9 70 21 51 3 -4 13 -11 21 -14z m-64 -21
c11 -44 1 -61 -35 -64 -36 -4 -51 9 -51 44 0 28 19 44 52 44 21 0 29 -6 34
-24z m162 2 c3 -14 -3 -18 -26 -18 -16 0 -32 -3 -35 -7 -12 -11 15 -33 42 -34
l26 -1 -25 -7 c-47 -14 -76 20 -59 68 7 18 15 22 41 19 22 -2 34 -9 36 -20z
m362 2 c24 -44 -17 -88 -61 -67 -27 14 -37 51 -19 73 19 21 67 18 80 -6z m512
-17 c2 -30 7 -38 23 -38 16 0 21 8 23 38 5 53 22 46 22 -9 l0 -45 -42 3 c-43
3 -43 3 -46 46 -2 23 1 42 7 42 5 0 11 -17 13 -37z m-802 -53 c0 -11 -4 -20
-10 -20 -5 0 -10 9 -10 20 0 11 5 20 10 20 6 0 10 -9 10 -20z m670 -105 c0
-13 -53 -15 -415 -15 -362 0 -415 2 -415 15 0 13 53 15 415 15 362 0 415 -2
415 -15z m-784 -135 l27 0 -22 -24 c-17 -18 -20 -30 -15 -52 l7 -28 -26 17
c-26 17 -28 17 -54 0 l-26 -17 6 29 c4 22 0 36 -16 53 l-20 22 26 0 c20 0 31
8 43 32 l16 32 14 -32 c10 -25 19 -32 40 -32z m217 0 l32 0 -24 -19 c-18 -14
-23 -25 -19 -50 5 -35 2 -37 -26 -16 -17 13 -22 13 -42 0 -32 -20 -35 -19 -28
11 5 18 0 32 -17 50 l-22 24 30 0 c26 0 33 5 43 33 l12 32 14 -32 c12 -28 20
-33 47 -33z m168 30 c9 -25 17 -30 42 -30 l30 0 -22 -24 c-17 -18 -22 -32 -17
-50 7 -29 0 -32 -28 -11 -16 12 -21 12 -40 0 -30 -22 -36 -19 -26 15 7 25 5
32 -18 49 l-27 20 33 1 c28 0 36 5 45 30 6 17 13 30 15 30 2 0 8 -13 13 -30z
m255 -30 l27 0 -20 -22 c-16 -17 -20 -31 -16 -53 6 -29 6 -29 -18 -13 -22 14
-28 14 -53 1 -29 -15 -29 -15 -23 13 4 21 0 35 -16 52 l-20 22 26 0 c20 0 31
8 43 32 l16 32 14 -32 c10 -25 19 -32 40 -32z m217 0 l32 0 -24 -19 c-18 -14
-23 -25 -19 -50 5 -35 2 -37 -26 -16 -17 13 -22 13 -42 0 -32 -20 -35 -19 -28
11 5 18 0 32 -17 50 l-22 24 30 0 c25 0 33 6 44 32 l13 32 13 -32 c11 -27 18
-32 46 -32z"/>
<path d="M2637 1650 c-15 -18 -25 -35 -22 -38 9 -9 58 44 53 58 -2 8 -15 0
-31 -20z"/>
<path d="M2017 1458 c-37 -27 -37 -53 0 -43 34 8 53 23 53 40 0 22 -25 24 -53
3z"/>
<path d="M1825 1210 c-9 -15 4 -30 26 -30 22 0 24 11 7 28 -15 15 -25 15 -33
2z"/>
<path d="M2262 1218 c2 -25 8 -33 23 -33 16 0 20 7 20 30 0 24 -5 31 -23 33
-21 3 -23 0 -20 -30z"/>
<path d="M1054 1236 c-10 -26 0 -51 21 -51 16 0 20 7 20 30 0 33 -30 49 -41
21z"/>
<path d="M1225 1240 c-3 -5 3 -10 15 -10 12 0 18 5 15 10 -3 6 -10 10 -15 10
-5 0 -12 -4 -15 -10z"/>
<path d="M1580 1235 c-17 -21 -8 -50 17 -53 26 -4 41 31 23 53 -16 19 -24 19
-40 0z"/>
</g>
</svg>
